# xmcd
#
# Track frame offsets: 
#        150
#        27650
#        45441
#        65594
#        92506
#        108495
#        126467
#        146497
#        163927
#        181850
#        196030
#        217835
#        236772
#        253556
#
# Disc length: 3584 seconds
#
# Revision: 0
# Processed by: cddbd v1.5.2PL0 Copyright (c) Steve Scherf et al.
# Submitted via: ExactAudioCopy v0.99pb4
#
DISCID=c40dfe0e
DTITLE=COLIN JOHN - EVOLUTION
DYEAR=1997
DGENRE=
TTITLE0=Serve Somebody
TTITLE1=Soul Sanctification
TTITLE2=Oleta Jones
TTITLE3=Venus Rising
TTITLE4=Pucker Up
TTITLE5=Same Old Blues
TTITLE6=Don`t Do It
TTITLE7=Colin`s Collins
TTITLE8=What`s Up With That?
TTITLE9=Trust
TTITLE10=Good Man Feeling Bad
TTITLE11=You`re the Kind Of Lover
TTITLE12=I Sho Do
TTITLE13=Electric Preacher
EXTD=
EXTT0=
EXTT1=
EXTT2=
EXTT3=
EXTT4=
EXTT5=
EXTT6=
EXTT7=
EXTT8=
EXTT9=
EXTT10=
EXTT11=
EXTT12=
EXTT13=
PLAYORDER=
